HIERARCHY
ROOT Hips
{
	OFFSET 0.0000 0.0000 0.0000
	CHANNELS 6 Xposition Yposition Zposition Zrotation Xrotation Yrotation
	JOINT Ab
	{
		OFFSET -0.0000 8.0846 -0.0000
		CHANNELS 3 Zrotation Xrotation Yrotation
		JOINT Chest
		{
			OFFSET -0.0000 25.0068 -0.0000
			CHANNELS 3 Zrotation Xrotation Yrotation
			JOINT Neck
			{
				OFFSET -0.0000 25.0068 0.0000
				CHANNELS 3 Zrotation Xrotation Yrotation
				JOINT Head
				{
					OFFSET -0.0000 10.7556 0.0000
					CHANNELS 3 Zrotation Xrotation Yrotation
					End Site
					{
						OFFSET -0.0000 16.6222 0.0000
					}
				}
			}
			JOINT LeftCollar
			{
				OFFSET -0.0000 25.0068 0.0000
				CHANNELS 3 Zrotation Xrotation Yrotation
				JOINT LeftShoulder
				{
					OFFSET 19.5556 -0.0000 0.0000
					CHANNELS 3 Zrotation Xrotation Yrotation
					JOINT LeftElbow
					{
						OFFSET 27.1828 0.0000 0.0000
						CHANNELS 3 Zrotation Xrotation Yrotation
						JOINT LeftWrist
						{
							OFFSET 23.3157 0.0000 0.0000
							CHANNELS 3 Zrotation Xrotation Yrotation
							End Site
							{
								OFFSET 0.0000 -14.6667 0.0000
							}
						}
					}
				}
			}
			JOINT RightCollar
			{
				OFFSET -0.0000 25.0068 0.0000
				CHANNELS 3 Zrotation Xrotation Yrotation
				JOINT RightShoulder
				{
					OFFSET -19.5556 0.0000 0.0000
					CHANNELS 3 Zrotation Xrotation Yrotation
					JOINT RightElbow
					{
						OFFSET -27.1828 0.0000 0.0000
						CHANNELS 3 Zrotation Xrotation Yrotation
						JOINT RightWrist
						{
							OFFSET -23.3157 0.0000 0.0000
							CHANNELS 3 Zrotation Xrotation Yrotation
							End Site
							{
								OFFSET -0.0000 -14.6667 0.0000
							}
						}
					}
				}
			}
		}
	}
	JOINT LeftHip
	{
		OFFSET 11.7333 0.0000 0.0000
		CHANNELS 3 Zrotation Xrotation Yrotation
		JOINT LeftKnee
		{
			OFFSET -0.0000 -40.8688 0.0000
			CHANNELS 3 Zrotation Xrotation Yrotation
			JOINT LeftAnkle
			{
				OFFSET -0.0000 -44.4337 0.0000
				CHANNELS 3 Zrotation Xrotation Yrotation
				End Site
				{
					OFFSET -0.0000 -4.8889 16.6222
				}
			}
		}
	}
	JOINT RightHip
	{
		OFFSET -11.7333 0.0000 0.0000
		CHANNELS 3 Zrotation Xrotation Yrotation
		JOINT RightKnee
		{
			OFFSET -0.0000 -40.8688 0.0000
			CHANNELS 3 Zrotation Xrotation Yrotation
			JOINT RightAnkle
			{
				OFFSET -0.0000 -44.4337 0.0000
				CHANNELS 3 Zrotation Xrotation Yrotation
				End Site
				{
					OFFSET -0.0000 -4.8889 16.6222
				}
			}
		}
	}
}
MOTION
Frames: 18
Frame Time: 0.010000
-8.0477 86.9573 111.9606 2.7022 1.2547 182.7499 358.0075 3.9017 355.4984 4.7003 10.0906 355.0161 3.8575 343.3430 1.3958 357.0538 11.3390 1.1302 339.2027 359.1861 4.3281 303.1462 25.4778 352.7783 12.7507 355.3802 321.4258 82.0828 359.8539 335.2808 21.1311 358.2794 350.7668 58.5943 39.3081 4.8278 341.9631 355.2090 29.7175 280.0139 351.6842 26.3146 0.5992 7.5251 354.8385 358.5185 8.4406 354.7260 2.4551 347.3647 22.4626 1.8087 333.2353 5.7520 1.7473 29.6061 359.3539 357.7652 353.8771 341.8862 
-7.9717 86.9014 111.6156 2.6264 1.2522 182.8632 358.0359 3.9838 355.3828 4.7247 10.1363 354.8960 3.9430 343.3361 1.4714 356.9674 11.3199 1.1964 339.1790 359.1644 4.5663 303.5904 26.7021 352.1170 13.4250 355.1021 321.5512 81.8425 359.7800 336.3002 21.0980 358.2565 350.6350 58.8873 39.0349 4.3197 342.1062 355.2303 29.8553 280.0876 352.3485 26.7115 0.5979 7.7909 354.8182 358.5394 8.3525 354.6715 359.0109 346.6057 21.6434 1.6385 333.1322 5.9027 1.5575 28.6286 359.7693 358.0680 355.0662 342.4159 
-7.9300 86.8441 111.2726 2.5160 1.2637 183.0276 358.0874 4.1341 355.2849 4.7328 10.1092 354.7972 4.0491 343.3974 1.5162 356.8197 11.2428 1.2395 339.1293 359.1261 4.5949 303.9239 27.4815 351.6871 13.9212 354.9423 321.5119 81.8029 359.7160 337.1095 21.0531 358.2292 350.4586 59.1009 38.6774 3.8397 342.3216 355.2852 29.8877 280.0360 352.4898 26.8724 0.5242 8.0752 354.6500 358.5855 8.2454 354.6840 359.5407 346.9203 21.8390 1.3722 333.0460 5.9634 1.3247 27.6557 0.3628 358.7406 355.4382 342.4852 
-7.8451 86.7800 110.8988 2.4125 1.2362 183.1161 358.0707 4.1480 355.2223 4.7788 10.2405 354.7241 4.3431 343.1408 1.4978 356.1423 11.5231 1.2353 339.0980 359.1235 4.7320 304.3811 28.4836 351.0523 14.5098 354.7334 321.6294 81.7212 359.5104 338.0528 21.0153 358.1955 350.3034 59.3242 38.4034 3.4215 342.4235 355.3040 29.8580 280.1972 352.7368 26.9588 0.4941 8.3365 354.7006 358.6237 8.1640 354.6022 359.0391 346.4257 21.7292 1.1920 332.9538 6.2668 1.3246 26.7390 0.1653 359.0283 355.8201 342.6856 
-7.7022 86.7073 110.7559 2.3332 0.4654 183.5885 357.9565 3.8120 354.9789 5.0167 9.9791 354.4732 4.4617 343.0691 1.4802 356.0505 11.4810 1.2103 339.1345 359.1609 4.4871 304.5991 28.6438 350.7048 14.4956 354.8392 321.4767 81.8802 359.4738 337.8377 20.8504 358.1640 349.8799 59.7704 37.6726 3.1883 342.7485 355.4292 29.7597 280.1777 353.0133 27.5872 0.5746 7.3873 354.4735 358.5369 8.5655 354.2489 359.0262 346.2145 21.8445 0.9043 331.9353 6.0154 0.8898 26.0271 1.0096 359.5005 356.0509 342.7714 
-7.5990 86.6171 110.4629 2.1672 0.2736 183.7189 357.8692 3.9195 354.9063 5.0820 9.8264 354.3963 4.6226 343.0856 1.6436 355.9502 11.4778 1.3697 339.1511 359.1965 4.3980 304.7227 27.9788 350.5485 14.0233 355.0837 320.8128 82.1613 359.6830 337.6240 20.8090 358.1513 349.8943 60.0830 37.3332 2.5986 342.9001 355.4699 29.6631 280.2335 352.9805 27.7169 0.4666 7.3279 354.6465 358.6228 8.6706 354.1967 358.8289 346.0199 21.5725 0.6896 331.5007 6.5752 0.8628 25.4548 1.4955 0.1173 356.2448 342.4221 
-7.5178 86.5273 110.0225 1.9976 0.3526 183.7798 357.8888 4.0531 354.8333 5.0416 9.8803 354.3230 4.6456 343.1825 1.7208 355.9329 11.3077 1.4423 339.1565 359.1626 4.3747 304.9265 28.3556 350.2663 14.3279 354.7987 320.4559 81.9257 359.9855 337.9521 20.7509 358.1333 349.8254 60.4138 36.9765 2.0329 343.0452 355.5196 29.3367 280.0631 352.4096 27.8818 0.3736 7.7927 354.5887 358.6467 8.5027 354.3154 358.7375 345.8154 21.4449 0.4475 331.5732 6.8481 0.6860 24.4830 2.0680 0.1620 356.0236 341.9549 
-7.4245 86.4393 109.6553 1.8274 0.2732 183.9090 357.8815 4.1953 354.7509 5.0522 9.7920 354.2402 4.7464 343.1969 1.7839 355.7927 11.2302 1.4981 339.1692 359.2079 4.1779 305.0111 28.1495 350.1450 14.2572 354.8057 320.1675 81.8328 359.9818 337.9168 20.7066 358.1212 349.6961 60.7049 36.6979 1.5293 343.0472 355.5714 29.2857 280.3231 352.6065 27.7402 0.2690 7.9637 354.6513 358.7020 8.5055 354.2894 358.5848 345.6077 21.2941 0.1766 331.4267 7.0719 0.6134 23.6748 2.1732 359.2994 356.4604 341.9168 
-7.3078 86.3453 109.2937 1.6831 0.0880 184.0569 357.8783 4.2410 354.6637 5.0792 9.7011 354.1541 4.8761 343.2256 1.8796 355.6571 11.1144 1.5845 339.1469 359.2406 4.1543 305.3260 28.6893 349.7523 14.6812 354.5588 319.9931 81.6345 359.9292 338.3147 20.6455 358.0975 349.5487 60.9857 36.3567 1.0747 343.2120 355.6080 29.2495 280.3149 353.0408 27.9983 0.2049 7.9575 354.7255 358.7554 8.6034 354.1626 358.4791 345.3619 21.2028 359.9312 331.1581 7.3353 0.5636 23.0315 2.1626 359.8896 356.1573 341.6199 
-7.1956 86.2466 108.9098 1.5256 359.9580 184.2138 357.8990 4.3674 354.5603 5.0911 9.5529 354.0541 4.9472 343.2046 1.9523 355.5332 11.1187 1.6594 339.1064 359.2033 4.1446 305.6092 29.2253 349.4393 15.1633 354.3054 319.7777 81.4918 359.9128 338.8098 20.6022 358.0854 349.4455 61.2566 36.0550 0.5453 343.2957 355.6546 29.1344 280.4392 353.2668 28.0763 0.1357 8.0453 354.7167 358.7915 8.6566 354.0991 358.3677 345.1221 21.1184 359.6871 330.9397 7.4185 0.5476 22.4991 1.5052 0.0093 355.3025 341.9397 
-7.0758 86.1388 108.5186 1.3585 359.8218 184.3433 357.9506 4.4722 354.4553 5.0337 9.4561 353.9591 5.0236 343.1893 2.0461 355.4526 11.0500 1.7468 339.0770 359.1567 4.5306 306.4131 30.7505 348.3383 15.8576 354.0198 320.3008 81.5050 359.5503 339.8854 20.5491 358.0551 349.3827 61.5571 35.8744 0.0401 343.3245 355.6706 28.9460 280.5019 353.2207 28.0275 0.1282 8.2765 354.6929 358.7248 8.4581 353.7994 358.3514 344.9972 21.2953 359.4046 330.7426 7.6439 0.5975 21.9657 1.2984 0.5715 354.7361 340.7024 
-6.9387 86.0207 108.0352 1.1876 359.8600 184.4604 358.0330 4.7526 354.3425 4.9116 9.0567 353.8714 5.1967 343.6949 2.1338 355.2275 10.7399 1.8385 338.8014 359.1546 4.5893 307.0804 31.8060 348.0816 16.5554 353.7681 320.4618 81.3744 359.3051 340.8553 20.7019 358.0615 349.4979 61.8470 35.4324 359.1183 343.4933 355.7315 28.8266 280.5389 353.2928 28.0760 0.0809 8.6212 354.6740 358.7025 8.5004 353.8410 358.3517 344.6811 21.2400 359.1447 330.7943 7.8794 0.6810 21.5276 1.0235 359.8485 354.1987 341.3491 
-6.7530 85.9226 107.6076 1.1006 359.5017 184.4146 358.0023 4.5825 354.3538 5.0056 8.9643 353.8813 5.0792 343.6528 2.2698 355.4447 10.7736 1.9825 338.7239 359.1201 4.8534 307.6918 32.7892 347.3520 17.1726 353.5805 320.6726 81.2561 359.3104 341.7206 20.6319 358.1147 349.5136 62.0955 35.1816 358.6318 343.6361 355.8095 28.6395 280.4656 353.2069 28.2700 0.1037 8.5177 354.7819 358.7073 8.5770 353.7968 358.2647 344.3729 21.2126 359.1518 330.3258 8.2317 0.5919 21.3600 1.0186 359.9730 353.6536 340.9319 
-6.5819 85.7983 107.0741 0.9483 359.5501 184.4377 357.9393 4.5767 354.3433 5.1179 9.4376 353.8381 5.1607 343.1020 2.3473 355.2329 10.9293 2.0394 338.9347 359.0758 5.1743 308.2728 34.0070 346.2126 17.9889 353.2753 320.8009 81.0047 359.3635 342.6714 20.3529 358.1137 349.2730 62.3973 35.0517 358.5901 343.6665 355.8261 28.5869 280.4086 353.3967 28.2971 0.1059 8.9307 354.8411 358.7093 8.5981 353.5415 358.2485 344.0426 21.3230 359.0003 330.4017 8.4932 0.6961 21.1415 0.6843 0.0919 353.1461 340.7286 
-6.4652 85.6772 106.5812 0.7109 359.6167 184.6197 358.0761 4.9996 354.2091 4.9022 8.9344 353.7419 5.2719 343.5226 2.3693 355.1655 10.6185 2.0546 338.6658 359.0065 5.3978 309.3336 36.0579 345.5173 19.2964 352.7771 321.4601 80.5811 358.9905 344.2460 20.4664 358.0573 349.2762 62.7155 34.7105 357.7066 343.8032 355.8683 28.4322 280.4539 353.3510 28.5984 359.9760 9.2371 354.4393 358.7152 8.7609 353.6147 357.8137 343.4038 21.5141 358.6260 330.4266 8.2840 0.7855 21.1446 0.6725 359.9539 352.7690 340.1605 
-6.2957 85.5337 106.0665 0.5537 359.4564 184.5025 358.0956 4.9575 354.2391 4.8672 8.9534 353.7757 5.3842 343.4630 2.5491 355.0232 10.5988 2.2381 338.5562 358.9396 5.7794 310.1420 37.2596 344.6937 20.2200 352.5454 321.7762 80.4601 358.6068 345.3316 20.4101 358.1081 349.4076 62.9645 34.3746 357.1620 343.9786 355.9178 28.3301 280.7241 353.4072 28.9492 359.9233 9.4331 354.2832 358.6890 8.7977 353.7995 357.9981 343.1766 21.4544 358.5944 330.1649 8.3102 0.8470 21.4938 0.0447 0.3103 352.4882 340.3407 
-6.1169 85.3829 105.5518 0.3616 359.3165 184.4614 358.0971 5.0080 354.2348 4.8652 8.8828 353.7738 5.1984 343.3477 2.5541 355.2564 10.5905 2.2367 338.4335 358.8638 6.1918 311.3024 39.3278 343.5773 21.6218 352.0823 322.4087 80.2025 358.2871 347.0224 20.3362 358.0872 349.2985 63.1882 34.2086 356.7500 344.0136 355.9591 28.2420 280.6365 353.4178 29.2437 359.8670 9.6056 354.1013 358.6425 8.9276 353.6825 358.0364 342.7682 21.7180 358.4533 329.8834 8.2794 1.0629 22.1741 358.8324 1.3480 352.9132 340.9420 
-5.9238 85.2236 105.0314 0.1905 359.2093 184.3923 358.0448 4.9962 354.2769 4.9542 9.2072 353.7926 5.2475 342.7946 2.6690 355.1687 10.6615 2.3330 338.5866 358.8119 6.5494 312.1014 40.3677 342.3926 22.3884 351.9724 322.6150 80.2832 358.1171 347.9718 20.0559 358.0912 349.1367 63.4717 34.0224 356.6568 344.1362 356.0023 28.1687 280.6561 353.4513 29.5616 359.8334 9.7213 353.9529 358.6185 9.2245 353.5372 358.0645 342.2885 21.9430 358.3481 329.5701 8.2677 1.3123 23.2009 358.5910 2.5390 354.5778 340.9685 
